Coordinates
version=1
nRows=32
nColumns=12
inDegrees=yes

Units are S.I. units (second, meters, Newtons, ...)
Angles are in degrees

endheader
time	SC_y	SC_z	SC_x	AC_y	AC_z	AC_x	GH_y	GH_z	GH_yy	EL_x	PS_y
       0.0              -39.98          15.04          14.15          49.34          9.728         0.1615          14.94         -10.89         -110.5          99.39          35.68
  0.001391              -39.99          15.05          14.16          49.34          9.728         0.1586          14.93         -10.87         -110.5          99.38          35.69
  0.002782              -39.99          15.05          14.16          49.34          9.728         0.1556          14.92         -10.86         -110.5          99.36          35.71
  0.004173              -39.99          15.05          14.18          49.34          9.727         0.1523          14.91         -10.85         -110.4          99.35          35.72
  0.005564              -39.99          15.05          14.19          49.34          9.727         0.1489          14.89         -10.83         -110.4          99.33          35.73
  0.006955              -39.99          15.05           14.2          49.34          9.726         0.1452          14.88         -10.81         -110.4          99.31          35.75
  0.008347               -40.0          15.05          14.21          49.34          9.726         0.1413          14.87          -10.8         -110.4          99.29          35.77
  0.009738               -40.0          15.05          14.22          49.33          9.725         0.1371          14.85         -10.78         -110.4          99.28          35.78
   0.01113               -40.0          15.06          14.24          49.33          9.725         0.1326          14.83         -10.76         -110.4          99.25           35.8
   0.01252               -40.0          15.06          14.25          49.33          9.724         0.1278          14.82         -10.74         -110.4          99.23          35.82
   0.01391              -40.01          15.06          14.27          49.33          9.724         0.1226           14.8         -10.71         -110.4          99.21          35.85
    0.0153              -40.01          15.06          14.29          49.32          9.723          0.117          14.78         -10.69         -110.4          99.18          35.87
   0.01669              -40.01          15.06           14.3          49.32          9.722          0.111          14.75         -10.66         -110.3          99.15           35.9
   0.01808              -40.02          15.07          14.32          49.32          9.721         0.1045          14.73         -10.63         -110.3          99.12          35.92
   0.01948              -40.02          15.07          14.35          49.32           9.72         0.0975          14.71          -10.6         -110.3          99.09          35.95
   0.02087              -40.03          15.07          14.37          49.31           9.72        0.08988          14.68         -10.57         -110.3          99.06          35.99
   0.02226              -40.03          15.07           14.4          49.31          9.719         0.0816          14.65         -10.53         -110.3          99.02          36.02
   0.02365              -40.04          15.08          14.42          49.31          9.717        0.07258          14.61         -10.49         -110.2          98.98          36.06
   0.02504              -40.04          15.08          14.46           49.3          9.716        0.06273          14.58         -10.45         -110.2          98.93           36.1
   0.02643              -40.05          15.08          14.49           49.3          9.715        0.05195          14.54          -10.4         -110.2          98.88          36.15
   0.02782              -40.06          15.09          14.53          49.29          9.714        0.04011          14.49         -10.35         -110.1          98.82           36.2
   0.02921              -40.07          15.09          14.57          49.29          9.712        0.02708          14.45         -10.29         -110.1          98.76          36.25
    0.0306              -40.07           15.1          14.61          49.28           9.71        0.01269          14.39         -10.23         -110.1           98.7          36.32
     0.032              -40.08           15.1          14.66          49.27          9.708      -0.003258          14.33         -10.16         -110.0          98.62          36.38
   0.03339              -40.09          15.11          14.72          49.26          9.706       -0.02099          14.27         -10.08         -110.0          98.54          36.46
   0.03478              -40.11          15.12          14.78          49.26          9.704       -0.04077           14.2         -9.992         -109.9          98.45          36.54
   0.03617              -40.12          15.13          14.85          49.25          9.701       -0.06293          14.11         -9.894         -109.9          98.35          36.64
   0.03756              -40.14          15.14          14.93          49.23          9.698       -0.08785          14.02         -9.783         -109.8          98.23          36.74
   0.03895              -40.15          15.15          15.02          49.22          9.695         -0.116          13.92         -9.659         -109.7           98.1          36.87
   0.04034              -40.17          15.16          15.12          49.21          9.691         -0.148           13.8         -9.517         -109.6          97.95           37.0
   0.04173              -40.19          15.17          15.23          49.19          9.686        -0.1845          13.67         -9.356         -109.5          97.78          37.16
   0.04312              -40.22          15.19          15.36          49.17          9.681        -0.2264          13.51          -9.17         -109.4          97.59          37.34
